<svg width="397" height="80" viewBox="0 0 397 80" fill="none" xmlns="http://www.w3.org/2000/svg">
<g clip-path="url(#clip0)">
<path d="M12.1719 24.996H68.5469V78.8085H12.1719V24.996Z" fill="url(#paint0_linear)"/>
<path d="M1.92188 14.746H58.2969V68.5585H1.92188V14.746Z" fill="url(#paint1_linear)"/>
<path d="M30.1094 4.10644C20.9148 -2.48287 13.6362 7.40117 16.9308 13.9903C20.1858 20.5004 30.1094 24.9959 30.1094 24.9959C30.1094 24.9959 40.033 20.5004 43.288 13.9903C46.5826 7.40117 39.304 -2.48287 30.1094 4.10644V4.10644Z" fill="url(#paint2_linear)"/>
<path d="M68.5469 23.0741H60.2188V14.7459C60.2187 14.2362 60.0163 13.7474 59.6558 13.387C59.2954 13.0265 58.8066 12.8241 58.2969 12.8241H45.7363C46.6067 9.12013 45.2869 4.89073 42.251 2.30052C38.8539 -0.597028 34.39 -0.753181 30.1094 1.80884C25.8289 -0.753661 21.3648 -0.596868 17.9679 2.30052C14.9318 4.89073 13.612 9.12013 14.4826 12.8241H1.92188C1.41216 12.8241 0.923325 13.0265 0.562904 13.387C0.202482 13.7474 0 14.2362 0 14.7459V68.5584C0 69.0682 0.202482 69.557 0.562904 69.9174C0.923325 70.2778 1.41216 70.4803 1.92188 70.4803H10.25V78.8084C10.25 79.3182 10.4525 79.807 10.8129 80.1674C11.1733 80.5278 11.6622 80.7303 12.1719 80.7303H68.5469C69.0566 80.7303 69.5454 80.5278 69.9058 80.1674C70.2663 79.807 70.4688 79.3182 70.4688 78.8084V24.9959C70.4688 24.4862 70.2663 23.9974 69.9058 23.637C69.5454 23.2766 69.0566 23.0741 68.5469 23.0741ZM20.4627 5.22465C21.4697 4.34357 22.7635 3.86001 24.1016 3.8646C25.6444 3.8646 27.3146 4.46807 28.9899 5.6686C29.3163 5.90253 29.7078 6.02832 30.1094 6.02832C30.511 6.02832 30.9025 5.90253 31.2289 5.6686C34.3538 3.42898 37.4618 3.26722 39.7561 5.22465C42.0604 7.19041 42.8397 10.5899 41.569 13.1309C39.1657 17.9375 32.4241 21.6813 30.1083 22.8577C27.7921 21.6838 21.0594 17.9515 18.6497 13.1309C17.379 10.5894 18.1584 7.19041 20.4627 5.22465ZM3.84375 16.6678H16.2964C20.4604 22.6815 28.9241 26.5688 29.3171 26.7466C29.5662 26.8593 29.8364 26.9176 30.1099 26.9176C30.3833 26.9176 30.6535 26.8593 30.9026 26.7466C31.2949 26.5688 39.7593 22.6815 43.9233 16.6678H56.375V66.6366H3.84375V16.6678ZM66.625 76.8866H14.0938V70.4803H58.2969C58.8066 70.4803 59.2954 70.2778 59.6558 69.9174C60.0163 69.557 60.2188 69.0682 60.2188 68.5584V26.9178H66.625V76.8866Z" fill="black"/>
<path d="M24.9844 37.1678H45.4844C45.9941 37.1678 46.4829 36.9654 46.8433 36.6049C47.2038 36.2445 47.4062 35.7557 47.4062 35.246C47.4062 34.7363 47.2038 34.2474 46.8433 33.887C46.4829 33.5266 45.9941 33.3241 45.4844 33.3241H24.9844C24.4747 33.3241 23.9858 33.5266 23.6254 33.887C23.265 34.2474 23.0625 34.7363 23.0625 35.246C23.0625 35.7557 23.265 36.2445 23.6254 36.6049C23.9858 36.9654 24.4747 37.1678 24.9844 37.1678V37.1678Z" fill="black"/>
<path d="M14.7344 37.1678C15.7958 37.1678 16.6562 36.3074 16.6562 35.246C16.6562 34.1845 15.7958 33.3241 14.7344 33.3241C13.673 33.3241 12.8125 34.1845 12.8125 35.246C12.8125 36.3074 13.673 37.1678 14.7344 37.1678Z" fill="black"/>
<path d="M24.9844 47.4178H45.4844C45.9941 47.4178 46.4829 47.2154 46.8433 46.8549C47.2038 46.4945 47.4062 46.0057 47.4062 45.496C47.4062 44.9863 47.2038 44.4974 46.8433 44.137C46.4829 43.7766 45.9941 43.5741 45.4844 43.5741H24.9844C24.4747 43.5741 23.9858 43.7766 23.6254 44.137C23.265 44.4974 23.0625 44.9863 23.0625 45.496C23.0625 46.0057 23.265 46.4945 23.6254 46.8549C23.9858 47.2154 24.4747 47.4178 24.9844 47.4178Z" fill="black"/>
<path d="M14.7344 47.4178C15.7958 47.4178 16.6562 46.5574 16.6562 45.496C16.6562 44.4345 15.7958 43.5741 14.7344 43.5741C13.673 43.5741 12.8125 44.4345 12.8125 45.496C12.8125 46.5574 13.673 47.4178 14.7344 47.4178Z" fill="black"/>
<path d="M24.9844 57.6678H45.4844C45.9941 57.6678 46.4829 57.4653 46.8433 57.1049C47.2038 56.7445 47.4062 56.2556 47.4062 55.7459C47.4062 55.2362 47.2038 54.7474 46.8433 54.3869C46.4829 54.0265 45.9941 53.824 45.4844 53.824H24.9844C24.4747 53.824 23.9858 54.0265 23.6254 54.3869C23.265 54.7474 23.0625 55.2362 23.0625 55.7459C23.0625 56.2556 23.265 56.7445 23.6254 57.1049C23.9858 57.4653 24.4747 57.6678 24.9844 57.6678Z" fill="black"/>
<path d="M14.7344 57.6678C15.7958 57.6678 16.6562 56.8073 16.6562 55.7459C16.6562 54.6845 15.7958 53.824 14.7344 53.824C13.673 53.824 12.8125 54.6845 12.8125 55.7459C12.8125 56.8073 13.673 57.6678 14.7344 57.6678Z" fill="black"/>
<path d="M84.3979 68.371H93.3979L104.702 43.531L106.934 68.371H116.294L133.718 30.715H124.934L113.63 56.707L111.326 30.715H103.55L91.6699 56.707L89.7979 30.715H80.5099L84.3979 68.371ZM143.955 25.315C147.051 25.315 149.427 23.083 149.427 20.131C149.427 17.179 146.979 14.947 143.955 14.947C140.931 14.947 138.555 17.179 138.555 20.131C138.555 23.083 140.931 25.315 143.955 25.315ZM130.923 68.371H140.211L146.835 30.715H137.547L130.923 68.371ZM177.048 57.427C177.048 51.451 172.656 48.787 165.312 45.763C160.272 43.675 158.4 42.595 158.4 40.147C158.4 38.059 160.128 36.475 163.656 36.475C167.544 36.475 169.776 38.491 170.424 41.515L178.848 40.579C177.696 34.171 172.008 29.923 163.944 29.923C155.016 29.923 149.832 34.531 149.832 40.795C149.832 46.411 153.072 49.363 160.704 52.459C165.672 54.475 168.048 55.555 168.048 58.219C168.048 60.955 166.032 62.539 162.216 62.539C157.392 62.539 155.016 59.947 154.224 56.347L145.512 57.643C146.88 64.339 152.568 69.091 162 69.091C171.144 69.091 177.048 64.699 177.048 57.427ZM178.736 68.371H188.024L191.984 45.547C192.92 40.291 196.592 37.555 200.912 37.555C204.512 37.555 206.312 39.211 206.312 42.235C206.312 43.315 206.24 44.539 206.024 45.979L202.136 68.371H211.424L215.456 45.259C215.744 43.459 215.888 42.091 215.888 40.147C215.888 33.379 211.784 29.923 205.448 29.923C199.616 29.923 195.8 33.307 193.64 36.547L197.672 13.723H188.456L178.736 68.371ZM230.94 25.315C234.036 25.315 236.412 23.083 236.412 20.131C236.412 17.179 233.964 14.947 230.94 14.947C227.916 14.947 225.54 17.179 225.54 20.131C225.54 23.083 227.916 25.315 230.94 25.315ZM217.908 68.371H227.196L233.82 30.715H224.532L217.908 68.371ZM233.937 68.371H243.225L247.185 45.547C248.121 40.291 251.793 37.555 256.113 37.555C259.713 37.555 261.513 39.211 261.513 42.235C261.513 43.315 261.441 44.539 261.225 45.979L257.337 68.371H266.625L270.657 45.259C270.945 43.459 271.089 42.091 271.089 40.147C271.089 33.379 266.985 29.923 260.649 29.923C254.817 29.923 251.001 33.307 248.841 36.547L249.849 30.715H240.561L233.937 68.371ZM276.781 68.731C278.365 68.731 279.661 67.435 279.661 65.779C279.661 64.195 278.365 62.971 276.781 62.971C275.197 62.971 273.901 64.195 273.901 65.779C273.901 67.435 275.197 68.731 276.781 68.731ZM307.753 62.827L306.817 68.371H310.345L314.665 44.179C314.881 42.667 315.025 41.443 315.025 40.291C315.025 33.523 310.417 30.139 303.145 30.139C295.729 30.139 291.121 34.315 289.105 39.859L292.561 40.867C294.001 36.835 297.169 33.235 303.073 33.235C307.825 33.235 311.425 35.107 311.425 40.507C311.425 41.443 311.353 42.451 311.137 43.891L310.561 46.915H302.065C293.281 46.915 286.513 48.643 284.929 56.275C284.785 57.139 284.713 57.931 284.713 58.867C284.713 65.203 289.321 68.947 296.161 68.947C301.489 68.947 305.377 66.355 307.753 62.827ZM288.241 58.579C288.241 57.715 288.385 57.067 288.529 56.563C289.681 50.731 294.505 49.579 301.777 49.579H310.129L308.833 56.635C307.825 62.035 302.785 66.067 296.881 66.067C291.337 66.067 288.241 63.115 288.241 58.579ZM323.519 60.019C324.959 64.627 329.207 68.947 336.407 68.947C344.903 68.947 351.815 62.611 353.687 52.387C354.407 48.499 354.551 46.771 354.551 45.187C354.551 36.115 349.223 30.139 341.015 30.139C334.247 30.139 329.639 34.099 327.335 38.707L328.703 30.715H325.175L316.247 81.403H319.775L323.519 60.019ZM325.751 47.275C327.479 38.059 333.599 33.163 340.295 33.163C346.919 33.163 350.951 37.699 350.951 45.187C350.951 46.555 350.807 48.211 350.087 52.099C348.503 60.883 343.175 65.923 336.335 65.923C329.567 65.923 324.743 61.603 324.743 54.835C324.743 52.099 325.031 50.875 325.751 47.275ZM361.983 60.019C363.423 64.627 367.671 68.947 374.871 68.947C383.367 68.947 390.279 62.611 392.151 52.387C392.871 48.499 393.015 46.771 393.015 45.187C393.015 36.115 387.687 30.139 379.479 30.139C372.711 30.139 368.103 34.099 365.799 38.707L367.167 30.715H363.639L354.711 81.403H358.239L361.983 60.019ZM364.215 47.275C365.943 38.059 372.063 33.163 378.759 33.163C385.383 33.163 389.415 37.699 389.415 45.187C389.415 46.555 389.271 48.211 388.551 52.099C386.967 60.883 381.639 65.923 374.799 65.923C368.031 65.923 363.207 61.603 363.207 54.835C363.207 52.099 363.495 50.875 364.215 47.275Z" fill="black"/>
</g>
<defs>
<linearGradient id="paint0_linear" x1="12.8125" y1="79.4491" x2="67.9063" y2="24.3553" gradientUnits="userSpaceOnUse">
<stop stop-color="#FBEBCA"/>
<stop offset="1" stop-color="#FCF2DC"/>
</linearGradient>
<linearGradient id="paint1_linear" x1="2.5625" y1="69.1991" x2="57.6563" y2="14.1053" gradientUnits="userSpaceOnUse">
<stop stop-color="#B8E1E3"/>
<stop offset="1" stop-color="#EDF7F8"/>
</linearGradient>
<linearGradient id="paint2_linear" x1="21.2653" y1="19.3645" x2="38.9536" y2="1.67623" gradientUnits="userSpaceOnUse">
<stop stop-color="#E87676"/>
<stop offset="1" stop-color="#F2B3B3"/>
</linearGradient>
<clipPath id="clip0">
<rect width="397" height="80" fill="white"/>
</clipPath>
</defs>
</svg>
